<svg width="49" height="48" viewBox="0 0 49 48" fill="none" xmlns="http://www.w3.org/2000/svg">
<path d="M8.01004 26.4676L14.8925 22.3388C15.7222 21.8405 16.7899 22.0522 17.3221 22.8211C17.5164 23.1012 17.6156 23.4276 17.631 23.7599C17.8876 23.626 18.1668 23.5532 18.451 23.5532C18.5965 23.5532 18.7426 23.5714 18.887 23.6073C19.3494 23.7228 19.739 24.0118 19.9841 24.4204C20.2294 24.8297 20.301 25.3093 20.1854 25.7712C20.0788 26.1985 19.8189 26.5582 19.4575 26.805C19.7102 26.9541 19.9282 27.1575 20.0833 27.4165C20.3286 27.8258 20.4001 28.3051 20.2849 28.7676C20.1694 29.2294 19.8804 29.619 19.4712 29.8647L19.4688 29.8661C19.7171 30.0149 19.9312 30.2163 20.0845 30.4714C20.3301 30.8807 20.4016 31.3603 20.2861 31.8227C20.1703 32.2848 19.8813 32.6744 19.4727 32.9198L11.0691 37.9612C9.50072 38.9018 7.68757 39.2264 5.96444 38.8745C4.22587 38.5193 2.78603 37.5199 1.91055 36.0605C0.525063 33.7514 0.732699 31.0232 2.45137 28.941C2.53007 28.846 2.60759 28.7492 2.67797 28.6488C2.75252 28.5427 2.83954 28.418 2.86923 28.3752C3.04713 28.0575 5.94995 22.8274 5.94964 22.8281C6.24278 22.2991 6.7922 21.9997 7.35885 22C7.62317 22 7.89135 22.0651 8.13876 22.2023C8.43753 22.3692 8.68849 22.6124 8.86401 22.9055C9.22485 23.507 9.23763 24.2596 8.89787 24.8686L8.01004 26.4676ZM8.05132 23.3931C7.95925 23.2396 7.83273 23.1172 7.678 23.0305C7.35814 22.8535 6.95542 22.9687 6.77933 23.2874C4.70221 27.0295 3.99414 28.3047 3.72089 28.7585L3.72713 28.76C3.70426 28.8361 3.70426 28.8361 3.4542 29.1933C3.36926 29.3142 3.2769 29.4303 3.18275 29.5447C1.70489 31.3352 1.53329 33.5885 2.72331 35.5727C3.46043 36.8016 4.67871 37.6442 6.15383 37.9453C7.645 38.2486 9.21668 37.9664 10.5808 37.1479L18.9851 32.1063C19.1769 31.9913 19.3124 31.8087 19.3664 31.5922C19.4205 31.376 19.3869 31.1511 19.2717 30.9593C19.0347 30.5643 18.52 30.4345 18.125 30.6724L13.979 33.1597C13.7545 33.2945 13.4629 33.2221 13.3283 32.9973C13.1935 32.7727 13.2663 32.4814 13.4908 32.3465L17.6371 29.8592L18.9836 29.0514C19.1755 28.9362 19.3112 28.7535 19.3652 28.5376C19.4193 28.3211 19.3857 28.096 19.2705 27.9045C19.0332 27.5092 18.5185 27.3806 18.1238 27.6176L12.631 30.9127C12.4059 31.0478 12.1151 30.9748 11.9803 30.7502C11.8455 30.5257 11.9185 30.2344 12.1428 30.0995L18.8841 26.0554C19.076 25.9402 19.2114 25.7579 19.2655 25.5414C19.3195 25.3251 19.286 25.1003 19.171 24.9085C19.0561 24.7169 18.8734 24.5815 18.6569 24.5274C18.4392 24.4734 18.2153 24.5069 18.0241 24.6216L16.7761 25.3703C16.7758 25.3703 16.7758 25.3706 16.7755 25.3706H16.7752L11.2827 28.6657C11.0576 28.8011 10.7665 28.7281 10.632 28.5033C10.4972 28.2787 10.5702 27.9874 10.7944 27.8526L16.2873 24.5574C16.4791 24.4422 16.6148 24.2596 16.6689 24.0436C16.7283 23.8066 16.6831 23.5643 16.5424 23.3612C16.2982 23.008 15.7761 22.9142 15.3803 23.1521L6.98205 28.1902C6.79821 28.3001 6.5627 28.2734 6.40856 28.1246C6.25413 27.9755 6.21938 27.7412 6.32332 27.5538L8.06964 24.4075C8.24487 24.093 8.23803 23.7045 8.05123 23.3932L8.05132 23.3931Z" fill="#4CAF4F" stroke="#4CAF4F"/>
<path d="M47.4294 38.0609C46.5542 39.5205 45.1148 40.5196 43.376 40.8748C41.6526 41.2261 39.8401 40.9021 38.2714 39.9615L29.8675 34.9201C29.4585 34.6748 29.1693 34.2851 29.0534 33.8224C28.9385 33.3606 29.0104 32.881 29.2554 32.4723C29.4083 32.2169 29.6227 32.0156 29.8713 31.8668L29.8689 31.8653C29.46 31.62 29.1707 31.2303 29.0555 30.7682C28.9397 30.3061 29.0116 29.8262 29.2569 29.417C29.4149 29.1542 29.6314 28.9487 29.8785 28.8028C29.5197 28.5561 29.2613 28.1976 29.155 27.7723C29.0392 27.3099 29.1111 26.8303 29.3564 26.4216C29.6014 26.0127 29.9913 25.7237 30.4534 25.6082C30.5978 25.572 30.7442 25.5542 30.8891 25.5542C31.1736 25.5545 31.4528 25.6266 31.7094 25.7609C31.7251 25.4285 31.824 25.1022 32.0182 24.8221C32.5507 24.0538 33.6174 23.8412 34.4484 24.3398L41.3303 28.4678L40.4433 26.87C40.1029 26.26 40.1154 25.5075 40.4762 24.9058C40.652 24.613 40.9033 24.3698 41.2035 24.2014C41.4503 24.0648 41.7176 24 41.9813 24C42.5476 24.0003 43.0977 24.2991 43.3904 24.828C44.4109 26.6667 46.3365 30.1342 46.4719 30.3762C46.5007 30.4181 46.5877 30.5428 46.6622 30.6488C46.7332 30.7495 46.8098 30.8457 46.8891 30.9414C48.6075 33.0244 48.8148 35.7521 47.4294 38.0609ZM46.1575 31.5458C46.063 31.4314 45.9704 31.3147 45.886 31.1944C45.6294 30.8303 45.6229 30.8208 45.6036 30.7255C45.3037 30.2293 44.5719 28.9119 42.5605 25.2881C42.3841 24.97 41.9831 24.8539 41.6639 25.0303C41.5068 25.1182 41.3806 25.2409 41.2885 25.3944C41.102 25.7053 41.0949 26.0938 41.271 26.4092L43.0166 29.5545C43.1209 29.7422 43.0861 29.9762 42.932 30.1253C42.7782 30.2747 42.543 30.3008 42.3582 30.1909L33.9603 25.153C33.5645 24.9157 33.0427 25.0086 32.798 25.362C32.6572 25.5652 32.6123 25.8075 32.6711 26.0442C32.7252 26.2604 32.8609 26.4427 33.0531 26.558L33.0545 26.5592L38.5454 29.8532C38.7699 29.9881 38.8427 30.2791 38.7079 30.5039C38.573 30.7281 38.2823 30.8015 38.0572 30.6664L31.316 26.6224C31.1248 26.5078 30.8997 26.4739 30.6835 26.5283C30.4667 26.5823 30.2843 26.7178 30.1694 26.9099C30.0542 27.1015 30.0209 27.3263 30.0744 27.5425C30.1284 27.7587 30.2642 27.9413 30.456 28.0565L31.7678 28.8433L37.1968 32.1005C37.4213 32.2354 37.4941 32.5264 37.3593 32.7512C37.2244 32.9754 36.9337 33.0485 36.7086 32.9137L31.2166 29.6187C30.8216 29.3811 30.3072 29.51 30.0696 29.9056C29.9544 30.0974 29.9212 30.3222 29.9746 30.5384C30.0287 30.7546 30.1644 30.937 30.3565 31.0525L31.703 31.8603L35.8485 34.3475C36.073 34.4823 36.1458 34.7734 36.011 34.9982C35.8762 35.2224 35.5854 35.296 35.3603 35.1606L31.2148 32.6734C31.0235 32.5588 30.7993 32.5249 30.5819 32.5793C30.3657 32.6333 30.1828 32.7687 30.0679 32.9603C29.9529 33.1521 29.9194 33.3772 29.9728 33.5931C30.0269 33.8093 30.1626 33.9917 30.3547 34.1072L38.7587 39.1487C40.1225 39.9669 41.6953 40.2502 43.1855 39.9461C44.6603 39.6449 45.8785 38.8024 46.6156 37.5735C47.8068 35.589 47.6349 33.3357 46.1575 31.5458Z" fill="#4CAF4F" stroke="#4CAF4F"/>
<path d="M26.4997 2.30786C28.2016 2.30057 29.8017 3.01446 31.0061 4.31792C32.1992 5.61019 32.8607 7.32844 32.8686 9.15745L32.9085 18.9576C32.9105 19.4344 32.727 19.8837 32.3912 20.2224C32.0556 20.5599 31.6081 20.7468 31.1317 20.7489C30.834 20.7503 30.5507 20.6712 30.2947 20.5356L30.2946 20.5384C30.2966 21.0153 30.1131 21.4645 29.7774 21.8024C29.4421 22.1408 28.9944 22.3279 28.5173 22.33C28.2106 22.331 27.9227 22.2522 27.67 22.1164C27.6447 22.5511 27.4719 22.9577 27.1631 23.2689C26.8276 23.6075 26.38 23.7944 25.9034 23.7962C25.4267 23.7985 24.9776 23.6146 24.6394 23.2791C24.5337 23.1744 24.4426 23.0584 24.3675 22.9344C24.2204 22.6908 24.1376 22.4147 24.1195 22.1257C23.8271 22.2843 23.4967 22.3687 23.1565 22.3477C22.2235 22.29 21.4892 21.4877 21.4853 20.5186L21.4523 12.4936L20.5449 14.0799C20.1994 14.687 19.5491 15.0661 18.8476 15.0691C18.506 15.0703 18.1678 14.9814 17.8683 14.8117C17.6236 14.6714 17.4298 14.4763 17.2932 14.2507C17.0002 13.7661 16.9709 13.1408 17.2717 12.6164C18.316 10.7913 20.2849 7.34817 20.4219 7.10697C20.4428 7.06064 20.5044 6.9216 20.5565 6.80293C20.6059 6.69007 20.6485 6.57469 20.6892 6.45733C21.5811 3.90858 23.8071 2.3185 26.4997 2.30786ZM21.5852 6.77019C21.5363 6.9102 21.4844 7.0499 21.4252 7.18435C21.2467 7.59241 21.2419 7.60293 21.1704 7.66881C20.9012 8.18241 20.1533 9.49065 18.0951 13.0881C17.9144 13.4038 18.0227 13.8069 18.339 13.9886C18.4955 14.0775 18.6658 14.1219 18.8448 14.1211C19.2074 14.1196 19.5434 13.9246 19.722 13.6105L21.5085 10.4883C21.6151 10.3019 21.8332 10.2104 22.0406 10.265C22.2481 10.3193 22.3922 10.5069 22.3939 10.7219L22.4337 20.5149C22.4357 20.9765 22.7855 21.3747 23.2146 21.401C23.4612 21.4162 23.6918 21.3291 23.8638 21.1562C24.0207 20.998 24.1064 20.7874 24.1055 20.5634L24.1057 20.5615L24.0798 14.1584C24.0788 13.8965 24.2901 13.6835 24.5522 13.6824C24.8139 13.6816 25.0272 13.8923 25.0282 14.1549L25.0602 22.0159C25.0612 22.2389 25.1489 22.449 25.3073 22.6057C25.4659 22.7632 25.6761 22.8491 25.9 22.8479C26.1236 22.8472 26.3331 22.7592 26.4904 22.6015C26.6473 22.4433 26.7333 22.2326 26.7325 22.0088L26.7261 20.4793L26.7006 14.1481C26.6997 13.8862 26.911 13.6732 27.1731 13.6721C27.4347 13.6713 27.6478 13.8822 27.6491 14.1446L27.6748 20.5492C27.6762 21.0101 28.0528 21.3833 28.5143 21.3817C28.7381 21.3809 28.9476 21.2929 29.1049 21.1352C29.2618 20.977 29.3475 20.7665 29.3468 20.5423L29.3404 18.9721L29.321 14.1377C29.3201 13.8758 29.5314 13.6628 29.7935 13.6617C30.0552 13.661 30.2687 13.8715 30.2695 14.1342L30.2889 18.9686C30.2899 19.1916 30.377 19.4009 30.5361 19.5587C30.6943 19.7157 30.9049 19.802 31.1283 19.8011C31.3519 19.8001 31.5619 19.7122 31.7189 19.5547C31.8758 19.3964 31.9615 19.1859 31.9608 18.9617L31.9209 9.16161C31.9145 7.57124 31.3422 6.07914 30.3103 4.96181C29.2889 3.85622 27.9372 3.25045 26.5042 3.2564C24.1897 3.26521 22.3511 4.57931 21.5852 6.77019Z" fill="#4CAF4F" stroke="#4CAF4F"/>
</svg>
